<?xml version="1.0" encoding="UTF-8" standalone="no"?>
<svg width="25px" height="25px" viewBox="0 0 25 25" version="1.1" xmlns="http://www.w3.org/2000/svg" xmlns:xlink="http://www.w3.org/1999/xlink">
    <!-- Generator: Sketch 42 (36781) - http://www.bohemiancoding.com/sketch -->
    <title>social-icon-instagram</title>
    <desc>Created with Sketch.</desc>
    <defs></defs>
    <g id="Page-1" stroke="none" stroke-width="1" fill="none" fill-rule="evenodd">
        <g id="social-icon-instagram" fill-rule="nonzero" fill="#FFFFFF">
            <path d="M18.285,12.1825 L18.285,12.1825 C18.2846182,11.4808793 18.1558299,10.7852527 17.905,10.13 L25,10.13 L25,18.75 C25,22.2017797 22.2017797,25 18.75,25 L6.25,25 C2.79822031,25 4.22721094e-16,22.2017797 0,18.75 L0,10.1325 L7.095,10.1325 C6.26751612,12.301484 6.81676321,14.7550461 8.49001485,16.3642229 C10.1632665,17.9733996 12.6363945,18.4264749 14.7714325,17.5149741 C16.9064705,16.6034733 18.2898369,14.5039645 18.285,12.1825 Z M12.5,15.6525 C10.5821912,15.6525 9.0275,14.0978088 9.0275,12.18 C9.0275,10.2621912 10.5821912,8.7075 12.5,8.7075 C14.4178088,8.7075 15.9725,10.2621912 15.9725,12.18 C15.9725,14.0978088 14.4178088,15.6525 12.5,15.6525 Z M18.75,0 C22.2017797,2.11360547e-16 25,2.79822031 25,6.25 L25,8.08 L16.58,8.08 C14.3232662,5.83493066 10.6767338,5.83493066 8.42,8.08 L0,8.08 L0,6.25 C0.000383915808,4.29442879 0.918610556,2.45242172 2.48,1.275 L2.48,6.5175 L3.845,6.5175 L3.845,0.48 C4.28442792,0.298712166 4.74329036,0.16868716 5.2125,0.0925 L5.2125,6.5175 L6.58,6.5175 L6.58,0 L18.75,0 Z M21.5425,5.91 L21.5425,3.8025 C21.5425,3.41451996 21.22798,3.1 20.84,3.1 L18.7325,3.1 C18.34452,3.1 18.03,3.41451996 18.03,3.8025 L18.03,5.91 C18.03,6.29798004 18.34452,6.6125 18.7325,6.6125 L20.84,6.6125 C21.22798,6.6125 21.5425,6.29798004 21.5425,5.91 Z" id="Combined-Shape"></path>
        </g>
    </g>
</svg>