<?xml version="1.0" encoding="UTF-8" standalone="no"?>
<svg width="30px" height="25px" viewBox="0 0 30 25" version="1.1" xmlns="http://www.w3.org/2000/svg" xmlns:xlink="http://www.w3.org/1999/xlink">
    <!-- Generator: Sketch 42 (36781) - http://www.bohemiancoding.com/sketch -->
    <title>social-icon-twitter</title>
    <desc>Created with Sketch.</desc>
    <defs></defs>
    <g id="Page-1" stroke="none" stroke-width="1" fill="none" fill-rule="evenodd">
        <g id="social-icon-twitter" fill-rule="nonzero" fill="#FFFFFF">
            <path d="M27.1410891,6.37128713 C27.1559406,6.63613861 27.1608911,6.90594059 27.1608911,7.17326733 C27.1608911,15.3712871 20.9207921,24.8242574 9.50990099,24.8242574 C6.13746299,24.8244926 2.83617286,23.8543842 -1.77635684e-15,22.029703 C0.493071333,22.0859669 0.988879559,22.1148891 1.48514851,22.1163366 C4.27661449,22.121088 6.98866245,21.1874322 9.18564356,19.4653465 C6.53112889,19.4170205 4.20117443,17.6859698 3.38861386,15.1584158 C4.31758738,15.338214 5.27547896,15.3017955 6.18811881,15.0519802 C3.29315499,14.4657077 1.21166814,11.9215532 1.21039604,8.96782178 L1.21039604,8.89108911 C2.07291818,9.36499923 3.03603356,9.62635564 4.01980198,9.65346535 C1.30145276,7.83146776 0.463356237,4.21270991 2.1039604,1.38118812 C5.25342162,5.25688946 9.90080529,7.61252362 14.8886139,7.86138614 C14.2510107,5.12637668 15.5289407,2.30395 18.0049337,0.978705355 C20.4809266,-0.346539295 23.5382377,0.15550317 25.460396,2.2029703 C26.8495121,1.93023972 28.1815401,1.42120577 29.3985149,0.698019802 C28.9358484,2.13332112 27.9684835,3.35220084 26.6757426,4.12871287 C27.9055119,3.98410544 29.1063652,3.6544758 30.2376238,3.1509901 C29.4078367,4.4021714 28.3588075,5.49312822 27.1410891,6.37128713 L27.1410891,6.37128713 Z" id="Shape"></path>
        </g>
    </g>
</svg>